<?xml version="1.0" encoding="UTF-8" standalone="no"?>
<!-- Created with Inkscape (http://www.inkscape.org/) -->

<svg
   xmlns:dc="http://purl.org/dc/elements/1.1/"
   xmlns:cc="http://creativecommons.org/ns#"
   xmlns:rdf="http://www.w3.org/1999/02/22-rdf-syntax-ns#"
   xmlns:svg="http://www.w3.org/2000/svg"
   xmlns="http://www.w3.org/2000/svg"
   xmlns:sodipodi="http://sodipodi.sourceforge.net/DTD/sodipodi-0.dtd"
   xmlns:inkscape="http://www.inkscape.org/namespaces/inkscape"
   width="410mm"
   height="570mm"
   viewBox="0 0 410 570"
   version="1.1"
   id="svg8"
   inkscape:version="0.92.5 (2060ec1f9f, 2020-04-08)"
   sodipodi:docname="PCW_FONT_DEMO_1.svg">
  <defs
     id="defs2" />
  <sodipodi:namedview
     id="base"
     pagecolor="#ffffff"
     bordercolor="#666666"
     borderopacity="1.0"
     inkscape:pageopacity="0.0"
     inkscape:pageshadow="2"
     inkscape:zoom="0.24748737"
     inkscape:cx="814.65843"
     inkscape:cy="1022.8994"
     inkscape:document-units="mm"
     inkscape:current-layer="layer1"
     showgrid="false"
     inkscape:window-width="1920"
     inkscape:window-height="1009"
     inkscape:window-x="1912"
     inkscape:window-y="-8"
     inkscape:window-maximized="1" />
  <metadata
     id="metadata5">
    <rdf:RDF>
      <cc:Work
         rdf:about="">
        <dc:format>image/svg+xml</dc:format>
        <dc:type
           rdf:resource="http://purl.org/dc/dcmitype/StillImage" />
        <dc:title></dc:title>
      </cc:Work>
    </rdf:RDF>
  </metadata>
  <g
     inkscape:label="Layer 1"
     inkscape:groupmode="layer"
     id="layer1"
     transform="translate(0,273)">
    <path
       style="fill:#000000;stroke-width:0.37306511"
       d="m 319.14844,188.95969 c -2.6158,-0.90291 -3.36535,-1.82335 -3.36535,-4.13263 0,-1.3857 0.21967,-2.05643 0.96268,-2.93945 l 0.96268,-1.14408 -0.77615,-0.98671 c -0.98407,-1.25104 -0.98332,-2.59354 0.002,-4.21035 0.67327,-1.10437 0.71168,-1.39202 0.2909,-2.17826 -0.26665,-0.49823 -0.47191,-1.79851 -0.45614,-2.88952 0.0373,-2.58127 1.11709,-4.35274 3.29614,-5.4076 1.53785,-0.74446 1.9602,-0.77596 6.60783,-0.4928 l 4.96509,0.3025 v 1.30572 c 0,1.20756 -0.0982,1.31994 -1.30573,1.49467 -0.84089,0.12169 -1.13972,0.29553 -0.83939,0.48835 0.76467,0.49096 0.58579,4.34513 -0.26656,5.74303 -1.12667,1.84781 -3.35575,2.80891 -6.11929,2.63843 -1.25836,-0.0776 -2.53575,-0.21699 -2.83866,-0.3097 -0.65024,-0.199 -1.01869,1.39577 -0.45313,1.96133 0.20077,0.20076 2.13345,0.50657 4.29485,0.67956 5.26531,0.42144 7.14115,1.45012 7.58041,4.15701 0.80048,4.93275 -6.04398,8.16359 -12.54242,5.9205 z m 6.14781,-2.29376 c 2.00481,-0.54822 2.79799,-1.32881 2.79799,-2.7536 0,-1.53575 -0.85815,-1.95521 -4.44351,-2.17197 -2.58282,-0.15614 -2.82214,-0.10519 -3.63739,0.77448 -0.99214,1.07054 -1.144,2.75451 -0.31077,3.44603 0.53809,0.44658 2.36072,1.00081 3.54182,1.07702 0.30778,0.0198 1.23112,-0.14752 2.05186,-0.37196 z m 0.39002,-13.56076 c 1.24941,-1.2494 1.28931,-3.8352 0.0763,-4.94542 -1.22763,-1.12363 -2.29844,-1.32893 -3.75568,-0.72006 -2.29819,0.96024 -2.70843,4.27853 -0.72213,5.84096 1.32247,1.04026 3.26314,0.96289 4.4015,-0.17548 z m -216.10558,9.87607 c -1.70833,-0.40014 -2.968,-1.3165 -3.73223,-2.71503 -0.55299,-1.01197 -0.68047,-2.37908 -0.78242,-8.39045 l -0.12179,-7.18151 h 1.6765 1.6765 l 0.12409,6.50234 c 0.11283,5.91271 0.19512,6.59775 0.90751,7.55457 0.59789,0.80303 1.14451,1.07912 2.30811,1.16579 1.31067,0.0976 1.73621,-0.0775 3.03163,-1.24786 l 1.50694,-1.36144 0.10213,-6.21343 0.10213,-6.21343 h 1.67879 1.67879 l 0.1,8.85149 0.1,8.8515 -0.90989,0.22837 c -1.52193,0.38198 -2.26475,0.0549 -2.39268,-1.05344 l -0.11806,-1.02282 -1.18767,0.9037 c -1.04717,0.79679 -1.81583,1.08874 -3.98566,1.51383 -0.30778,0.0603 -1.101,-0.0172 -1.76272,-0.17218 z m 68.16831,0.005 c -3.01225,-0.56829 -4.47678,-2.28333 -4.47678,-5.24254 0,-1.75208 0.13953,-2.08442 1.4074,-3.3523 1.63198,-1.63198 3.4292,-2.23046 6.70676,-2.23338 l 2.33166,-0.002 v -1.66425 c 0,-1.23164 -0.21224,-1.862 -0.81647,-2.42493 -1.10344,-1.02801 -3.87087,-1.01623 -6.08793,0.0259 -1.9212,0.90309 -2.79529,0.7372 -2.79529,-0.53049 0,-1.17863 1.0374,-2.05751 3.19507,-2.70688 3.94419,-1.18703 8.06916,-0.2443 9.37113,2.1417 0.58915,1.07967 0.67761,2.19151 0.67761,8.51655 v 7.27477 h -1.30573 c -1.05159,0 -1.32796,-0.15598 -1.41996,-0.80141 l -0.11424,-0.80142 -1.56456,0.84931 c -1.86276,1.0112 -3.33686,1.28574 -5.10867,0.95147 z m 4.7947,-3.7028 c 0.89319,-0.63601 1.12468,-1.10562 1.2362,-2.50785 0.1635,-2.05574 0.001,-2.15641 -3.11346,-1.93112 -1.91432,0.13847 -2.42567,0.33007 -3.16025,1.18406 -1.13136,1.31528 -1.10798,2.27182 0.0846,3.46445 0.80007,0.80008 1.20326,0.92853 2.40745,0.76701 0.79554,-0.1067 1.94098,-0.54615 2.54542,-0.97655 z m 79.26672,3.67382 c -4.41754,-0.87061 -6.46388,-3.73302 -6.46388,-9.04165 0,-3.32022 0.54924,-5.12599 2.11571,-6.95607 2.39335,-2.79609 7.20024,-3.47806 10.33325,-1.46602 1.9662,1.26272 3.29655,4.09844 3.14762,6.70934 l -0.11437,2.00493 -5.87578,0.10274 -5.87578,0.10274 v 1.14661 c 0,3.73935 3.16368,5.46976 7.81955,4.27698 3.17865,-0.81434 3.37241,-0.78458 3.37241,0.51791 0,1.692 -1.17883,2.25919 -5.78251,2.78219 -0.61556,0.0699 -1.81986,-0.0109 -2.67622,-0.1797 z m 5.64294,-12.37461 c -0.57375,-2.61231 -1.85583,-3.47742 -4.91943,-3.31952 -1.20637,0.0622 -3.04778,1.89777 -3.31776,3.30728 l -0.23224,1.21246 h 4.36652 4.36653 z m 14.78826,12.3317 c -0.69924,-0.20044 -1.82025,-0.78311 -2.49113,-1.29482 l -1.21979,-0.93038 -0.12032,1.04957 c -0.10638,0.92788 -0.27172,1.04957 -1.42606,1.04957 h -1.30573 v -13.05728 -13.05728 l 1.57487,-0.11419 1.57486,-0.1142 0.10393,5.06251 0.10393,5.06252 1.49124,-1.01401 c 3.26595,-2.22074 7.61549,-1.28084 9.44832,2.04174 1.83973,3.33506 1.73168,9.16811 -0.22893,12.35842 -1.53523,2.49815 -4.72433,3.75499 -7.50519,2.95783 z m 3.35913,-3.40224 c 1.91298,-1.45984 2.68577,-7.22943 1.32166,-9.86734 -1.53823,-2.9746 -3.96052,-3.1001 -6.8603,-0.35541 -1.17923,1.11616 -1.21246,1.23289 -1.21246,4.25861 0,3.46469 0.4581,4.55763 2.40895,5.7473 1.28785,0.78536 3.45533,0.89359 4.34215,0.21684 z m 55.06105,3.44062 c -1.90352,-0.31362 -3.08179,-0.93534 -4.37248,-2.3072 -1.44714,-1.53814 -1.94337,-3.26599 -1.96661,-6.84774 -0.0202,-3.11485 0.0716,-3.56054 1.11473,-5.40945 2.5437,-4.50875 8.8226,-5.46924 12.53129,-1.91693 1.52566,1.46134 2.59198,5.55534 1.90991,7.3328 -0.19345,0.50413 -1.09734,0.59012 -6.20326,0.59012 h -5.97681 l 0.24459,1.58552 c 0.52141,3.37999 2.83447,4.75726 6.75248,4.02064 5.02832,-0.94538 4.66331,-0.96701 4.66331,0.27638 0,1.33727 -0.45504,1.75971 -2.42492,2.25117 -2.43712,0.60802 -4.36651,0.73866 -6.27223,0.42469 z m 5.71263,-12.23874 c 0,-2.94577 -3.8213,-4.54892 -6.59027,-2.76481 -0.6506,0.4192 -1.99023,2.87919 -1.99023,3.65471 0,0.0984 1.93062,0.17898 4.29025,0.17898 h 4.29025 z M 71.699432,182.5446 c -0.608764,-0.46472 -0.651163,-1.39317 -0.559598,-12.25437 l 0.09908,-11.75155 4.801609,-0.10475 c 4.246951,-0.0926 4.988705,-0.0142 6.421305,0.67933 2.196544,1.06333 3.193389,2.7531 3.193389,5.41316 0,2.08699 -0.624828,3.58156 -1.890004,4.52085 -0.322873,0.2397 -0.503365,0.50036 -0.401097,0.57924 0.102272,0.0789 0.645276,0.4307 1.206679,0.78183 2.904536,1.81663 3.567346,6.57597 1.336092,9.5939 -1.448224,1.95883 -3.653229,2.67073 -8.885464,2.86872 -3.55587,0.13456 -4.819736,0.0571 -5.321986,-0.32636 z m 10.58492,-3.97402 c 1.404176,-1.25463 1.655514,-3.42799 0.585321,-5.06132 -0.901907,-1.37648 -2.017525,-1.72677 -5.499476,-1.72677 h -2.960235 v 3.91718 3.91719 h 3.3517 c 3.14514,0 3.423868,-0.0645 4.52269,-1.04628 z m -1.86725,-10.62478 c 1.157285,-0.77798 1.277263,-1.03423 1.378296,-2.94375 0.09997,-1.88939 0.01395,-2.16767 -0.889708,-2.87849 -0.81198,-0.6387 -1.517819,-0.78689 -3.748051,-0.78689 h -2.747677 v 3.73065 3.73065 h 2.369755 c 1.849366,0 2.648117,-0.18713 3.637385,-0.85217 z m 11.420321,14.79769 c -0.146555,-0.14656 -0.266465,-4.26759 -0.266465,-9.15785 v -8.89139 h 1.485153 c 1.272727,0 1.518607,0.1333 1.719055,0.93195 l 0.233904,0.93195 1.107686,-0.93206 c 1.362658,-1.1466 2.525394,-1.46112 4.223684,-1.14252 1.25913,0.23621 1.30328,0.30121 1.30328,1.91923 v 1.67474 l -1.799058,-0.23865 c -1.782554,-0.23647 -1.813257,-0.22252 -3.348323,1.52141 l -1.549276,1.76007 -0.102526,5.83377 -0.102526,5.83377 -1.319061,0.11102 c -0.725485,0.0611 -1.438972,-0.009 -1.585527,-0.15544 z m 33.476997,-0.24345 c -0.10013,-0.26092 -0.13683,-4.332 -0.0816,-9.04683 l 0.10049,-8.57242 h 1.4886 c 1.3521,0 1.51054,0.10262 1.72792,1.11919 0.13162,0.61556 0.25918,0.93603 0.28346,0.71216 0.0758,-0.69889 3.62379,-2.39095 5.01345,-2.39095 2.8352,0 5.11642,1.65594 5.82569,4.22888 0.26778,0.97138 0.38745,3.93044 0.31935,7.89573 l -0.10893,6.34211 h -1.49226 -1.49226 l -0.19461,-6.34211 c -0.21269,-6.93161 -0.50221,-8.05122 -2.27147,-8.78407 -1.37702,-0.57038 -2.43028,-0.27873 -4.15583,1.15078 l -1.39899,1.15898 v 6.05379 c 0,4.2111 -0.13627,6.19008 -0.44768,6.50149 -0.59423,0.59422 -2.88463,0.57458 -3.11537,-0.0267 z m 20.43721,0.16252 c -0.36523,-0.23181 -0.45046,-2.29735 -0.37307,-9.04111 l 0.10031,-8.74066 h 1.48859 c 1.351,0 1.50618,0.10022 1.6788,1.08425 0.17521,0.99882 0.23232,1.03342 0.72483,0.43906 1.70501,-2.05756 5.73145,-2.69432 7.86312,-1.24352 2.72265,1.85303 2.7942,2.11638 2.7942,10.28569 v 7.34164 h -1.49226 -1.49226 l -0.19993,-6.52864 c -0.10996,-3.59075 -0.34015,-6.82864 -0.51154,-7.1953 -0.48247,-1.0322 -2.35103,-1.84139 -3.61236,-1.56435 -0.60407,0.13267 -1.68303,0.79269 -2.39769,1.4667 l -1.29938,1.22548 v 5.94364 c 0,4.12542 -0.13695,6.0806 -0.44768,6.39133 -0.50838,0.50837 -2.11495,0.58563 -2.82368,0.13579 z m 47.09628,-0.13982 c -0.10491,-0.27341 -0.14553,-4.3547 -0.0903,-9.06953 l 0.10049,-8.57242 h 1.49226 c 1.26349,0 1.51053,0.12868 1.61147,0.83939 0.1497,1.05402 0.27117,1.04811 1.60997,-0.0784 2.22107,-1.8689 5.62347,-1.69037 7.71887,0.40504 l 1.2937,1.29369 0.97123,-0.90746 c 3.16099,-2.95346 7.46486,-2.75036 9.45258,0.44606 0.80296,1.29123 0.84528,1.72351 0.84528,8.63405 v 7.27477 h -1.49226 -1.49226 l -0.18653,-6.54531 c -0.15241,-5.34779 -0.30416,-6.72478 -0.82946,-7.52627 -1.25573,-1.91597 -3.10132,-1.81899 -5.25881,0.27635 l -1.37304,1.33347 v 6.13051 6.1305 l -0.90315,0.22668 c -2.2381,0.56173 -2.24806,0.5362 -2.48827,-6.37223 -0.24047,-6.9163 -0.53695,-8.07209 -2.25295,-8.78288 -1.34017,-0.55512 -2.75372,-0.0404 -4.29129,1.5626 l -1.06976,1.11527 -0.18653,6.22566 -0.18653,6.22565 -1.402,0.11596 c -0.91213,0.0754 -1.46864,-0.0577 -1.59275,-0.38113 z m 45.59978,-0.0659 c -5.29196,-1.96423 -7.65093,-6.16577 -7.2767,-12.96047 0.27047,-4.91093 2.49985,-8.45339 6.57715,-10.45103 1.45799,-0.71433 2.35341,-0.85542 5.47379,-0.86251 3.27448,-0.007 3.95874,0.10803 5.59597,0.94429 1.74321,0.89039 1.87284,1.05496 1.98005,2.51381 0.13656,1.85837 -0.0784,1.90747 -2.7116,0.61918 -5.06333,-2.47725 -10.01029,-1.05324 -12.34412,3.55333 -0.81903,1.61663 -1.13729,6.00982 -0.58365,8.05667 0.57474,2.12487 2.29867,4.36809 4.00954,5.21732 1.66403,0.82599 5.65726,0.95488 7.33271,0.23669 1.03864,-0.44522 1.04031,-0.45188 0.93266,-3.71403 l -0.10785,-3.26801 -2.98452,-0.18654 -2.98452,-0.18653 v -1.30573 -1.30572 l 3.91719,-0.10878 c 6.09635,-0.1693 5.59597,-0.71527 5.59597,6.1059 v 5.79638 l -1.77206,0.79943 c -2.26445,1.02154 -8.46742,1.31646 -10.65001,0.50635 z m 57.3662,0.0659 c -0.10492,-0.27341 -0.14554,-4.3547 -0.0903,-9.06953 l 0.10049,-8.57242 1.59221,-0.11505 1.59221,-0.11504 -0.1,9.06861 -0.0999,9.0686 -1.40199,0.11596 c -0.91214,0.0754 -1.46865,-0.0577 -1.59275,-0.38113 z m 9.04371,0.22075 c -0.14655,-0.14656 -0.26646,-4.26759 -0.26646,-9.15785 v -8.89139 h 1.49226 c 1.42043,0 1.49226,0.0557 1.49226,1.15784 v 1.15784 l 1.31257,-1.15245 c 1.54586,-1.35728 2.68906,-1.70847 4.47239,-1.37391 1.26184,0.23672 1.30328,0.29837 1.30328,1.93917 v 1.69468 l -1.53522,-0.25937 c -1.91123,-0.3229 -2.97551,0.20423 -4.22529,2.09278 -0.88125,1.33167 -0.94091,1.74111 -1.03809,7.12497 l -0.10311,5.71211 -1.31906,0.11102 c -0.72548,0.0611 -1.43897,-0.009 -1.58553,-0.15544 z m -9.14541,-21.48144 c -0.24622,-0.24622 -0.44768,-0.9681 -0.44768,-1.60418 0,-0.63607 0.20146,-1.35795 0.44768,-1.60418 0.24622,-0.24622 0.9681,-0.44767 1.60418,-0.44767 0.63608,0 1.35796,0.20145 1.60418,0.44767 0.24622,0.24623 0.44768,0.96811 0.44768,1.60418 0,0.63608 -0.20146,1.35796 -0.44768,1.60418 -0.24622,0.24623 -0.9681,0.44768 -1.60418,0.44768 -0.63608,0 -1.35796,-0.20145 -1.60418,-0.44768 z M 111.80974,134.95883 c -0.46167,-0.0889 -0.8394,-0.32011 -0.8394,-0.51374 0,-1.02607 8.31527,-23.35715 8.84437,-23.75201 1.38277,-1.03195 4.58598,-0.0675 4.58598,1.38072 0,0.19514 1.76273,5.23184 3.91718,11.19266 2.15445,5.96082 3.91719,10.98585 3.91719,11.16673 0,0.43244 -1.62492,0.73141 -2.77765,0.51105 -0.75727,-0.14476 -1.09874,-0.69075 -2.00925,-3.21258 l -1.09693,-3.03819 -4.85829,-0.10386 -4.85829,-0.10385 -1.00543,3.01902 c -0.79408,2.3844 -1.19847,3.09241 -1.92378,3.36817 -0.50508,0.19204 -0.94938,0.3263 -0.98732,0.29835 -0.0379,-0.0279 -0.44671,-0.12355 -0.90838,-0.21247 z m 13.33708,-9.65975 c 0,-0.76886 -3.57919,-10.51989 -3.78183,-10.30311 -0.21802,0.23323 -3.67947,9.99945 -3.67947,10.38133 0,0.0798 1.67879,0.14512 3.73065,0.14512 2.05186,0 3.73065,-0.10051 3.73065,-0.22334 z m 10.87332,9.49709 -0.81038,-0.29978 0.0982,-12.78769 0.0982,-12.78768 h 1.67879 1.67879 l 0.10417,4.95378 0.10417,4.95378 1.3313,-1.01543 c 1.86727,-1.42424 5.07951,-1.66095 7.10108,-0.52329 2.78536,1.56751 4.13293,5.11247 3.73731,9.83149 -0.26179,3.12257 -1.36387,5.53318 -3.15381,6.89844 -1.16287,0.88696 -1.67033,1.01579 -4.0013,1.01579 -2.3492,0 -2.83393,-0.12539 -4.03949,-1.04492 l -1.36996,-1.04491 v 0.90815 c 0,1.02376 -1.17061,1.45514 -2.55702,0.94227 z m 9.74714,-3.44547 c 2.31532,-2.14576 2.36737,-8.98755 0.0834,-10.95793 -1.42731,-1.23132 -3.14307,-1.09982 -5.09937,0.39084 l -1.61453,1.23024 -0.10736,3.66793 c -0.11752,4.01533 0.0551,4.4468 2.34575,5.8617 1.55069,0.95785 3.23012,0.88414 4.39213,-0.19278 z m 10.62374,3.61318 c -0.6061,-0.1574 -0.65286,-1.10434 -0.65286,-13.22092 v -13.05138 l 1.58552,0.11472 1.58553,0.11472 0.18653,5.03638 c 0.10433,2.8167 0.32101,4.8285 0.49165,4.56471 0.61032,-0.94348 3.21291,-1.95326 5.0343,-1.95326 2.22408,0 3.98182,1.07107 5.00167,3.04774 0.57008,1.10493 0.7489,2.51445 0.92721,7.30862 0.1215,3.26682 0.11389,6.36605 -0.0169,6.88717 -0.25988,1.03543 -1.14165,1.4203 -2.61065,1.13949 l -0.94668,-0.18097 -0.11638,-6.70921 -0.11638,-6.70921 -1.04673,-0.89955 c -1.28515,-1.10445 -2.57666,-1.14199 -4.22569,-0.12283 -2.27826,1.40804 -2.37542,1.75352 -2.37542,8.44638 0,4.99348 -0.094,6.07256 -0.52908,6.07256 -0.291,0 -0.75267,0.064 -1.02593,0.14219 -0.27327,0.0782 -0.79063,0.0659 -1.14971,-0.0273 z m 23.03677,-0.30217 c -3.09372,-1.09391 -4.74969,-4.0852 -4.74969,-8.5797 0,-6.11778 3.08371,-9.49677 8.66688,-9.49677 5.56541,0 8.3391,3.04223 8.31834,9.12371 -0.0156,4.55627 -1.49688,7.28852 -4.77423,8.80588 -1.80041,0.83356 -5.32314,0.90291 -7.4613,0.14688 z m 6.82491,-3.47158 c 2.53542,-2.36843 2.57336,-8.07839 0.0703,-10.58143 -0.86928,-0.86928 -1.37278,-1.05436 -2.85608,-1.04983 -3.67019,0.0112 -5.15667,1.84528 -5.13505,6.33583 0.0218,4.52317 1.41896,6.34289 4.87011,6.34289 1.59945,0 2.12115,-0.17913 3.0507,-1.04746 z m 10.61589,3.73332 -0.8394,-0.1263 v -13.03133 -13.03133 h 1.67879 1.6788 v 13.01378 13.01379 l -0.8394,0.14385 c -0.46167,0.0791 -1.21713,0.087 -1.67879,0.0175 z m 8.71106,-0.25259 c -1.58447,-0.56466 -2.07773,-1.09805 -2.07773,-2.24674 0,-1.57338 0.5176,-1.80472 2.16149,-0.96606 3.0355,1.54859 6.7919,0.82685 6.77493,-1.30171 -0.01,-1.20968 -0.52182,-1.6539 -3.76501,-3.26546 -3.77115,-1.87391 -4.98352,-3.33062 -4.68267,-5.62642 0.39437,-3.00947 2.69322,-4.69499 6.40154,-4.69364 2.92628,0.001 4.66331,0.97102 4.66331,2.60399 0,1.29876 -0.47031,1.40582 -2.48246,0.56509 -1.83851,-0.76818 -3.20577,-0.70133 -4.36893,0.21361 -1.9485,1.53268 -1.00351,2.84199 3.55799,4.92966 3.17571,1.45344 4.04058,2.52522 4.03814,5.00422 -0.004,4.1211 -5.22393,6.56411 -10.2206,4.78346 z m 17.05457,0.005 c -2.04923,-0.89128 -2.3558,-2.03153 -2.3558,-8.76207 v -5.98757 h -1.07351 c -1.28638,0 -2.013,-0.7627 -1.84638,-1.93806 0.0989,-0.69746 0.38622,-0.88181 1.5209,-0.97572 l 1.39899,-0.11578 v -2.19073 c 0,-1.88852 0.10665,-2.22458 0.77306,-2.43609 0.42518,-0.13495 1.18064,-0.14306 1.67879,-0.018 0.83264,0.20898 0.90574,0.40739 0.90574,2.4586 v 2.23129 h 2.44744 2.44745 l -0.11579,1.39899 -0.11579,1.399 -2.33165,0.11107 -2.33166,0.11106 0.005,5.11185 c 0.007,6.50922 0.21757,7.00871 2.90694,6.89589 l 1.93743,-0.0813 v 1.30297 c 0,1.05539 -0.18184,1.37211 -0.95695,1.66681 -1.33826,0.5088 -3.49007,0.4287 -4.89469,-0.18221 z m 11.10106,-0.1074 c -1.92369,-0.98093 -2.8245,-2.43826 -2.8245,-4.56948 0,-3.57034 2.79699,-5.59598 7.72688,-5.59598 h 2.90547 v -1.44195 c 0,-3.18507 -2.4326,-4.38429 -6.1783,-3.04577 -1.21861,0.43547 -2.49327,0.88324 -2.83256,0.99505 -0.90296,0.29756 -1.26293,-1.18132 -0.55174,-2.26673 1.32713,-2.02546 7.61707,-2.79681 10.33769,-1.26774 2.35577,1.32402 2.5825,2.23009 2.5825,10.32048 0,6.45963 -0.0587,7.10991 -0.65286,7.2328 -1.20119,0.24844 -2.33166,-0.14874 -2.33166,-0.8192 0,-0.58765 -0.17169,-0.56498 -1.74202,0.23003 -2.09557,1.06091 -4.63002,1.15084 -6.4389,0.22848 z m 6.56424,-3.28583 c 1.08096,-0.8245 1.24361,-1.16565 1.24361,-2.60837 v -1.6598 h -2.56114 c -3.15991,0 -4.52709,0.83571 -4.52709,2.76724 0,2.75738 3.14009,3.56377 5.84462,1.50092 z m 12.90426,3.55545 c -0.46037,-0.18509 -1.17323,-0.88793 -1.58413,-1.56188 -0.66602,-1.09236 -0.74725,-1.88087 -0.74849,-7.26514 l -0.001,-6.0398 -1.39899,-0.11579 c -1.31822,-0.1091 -1.4056,-0.19519 -1.51337,-1.491 -0.11201,-1.34693 -0.0851,-1.37762 1.30573,-1.49226 l 1.4201,-0.11704 0.1113,-2.12572 c 0.12131,-2.31672 0.67904,-2.84147 2.52708,-2.37764 0.83264,0.20898 0.90574,0.40739 0.90574,2.4586 v 2.23129 h 5.74259 c 4.89235,0 5.77613,0.0874 5.96905,0.59011 0.12454,0.32456 0.22644,4.27388 0.22644,8.77626 v 8.18615 l -0.85828,0.32632 c -0.47205,0.17948 -1.31145,0.23969 -1.86532,0.13381 l -1.00705,-0.19251 v -7.41781 -7.41781 h -4.10372 -4.10371 v 5.32643 c 0,6.62765 0.25256,7.19581 3.03468,6.82674 l 1.81516,-0.24079 v 1.32782 c 0,1.08204 -0.17712,1.39515 -0.95694,1.69164 -1.17265,0.44584 -3.78423,0.43522 -4.91647,-0.02 z m 22.01087,-0.0111 c -3.26337,-1.00142 -5.209,-5.00629 -4.83494,-9.95221 0.4327,-5.7213 3.61979,-8.53843 9.33333,-8.24991 5.27112,0.26618 7.53057,2.99467 7.53057,9.09381 0,2.88051 -0.13805,3.63588 -0.95455,5.22291 -1.45226,2.82277 -3.4641,4.00903 -7.03343,4.14717 -1.557,0.0603 -3.37544,-0.0575 -4.04098,-0.26177 z m 6.42788,-3.39839 c 1.40606,-1.10602 2.05696,-2.8508 2.05696,-5.51382 0,-4.35803 -1.56453,-6.36164 -4.96754,-6.36164 -3.05585,0 -4.73215,2.23969 -4.73215,6.32258 0,2.74755 0.801,4.8721 2.15296,5.71046 1.48296,0.91959 4.22025,0.84102 5.48977,-0.15759 z m 10.72383,3.40636 -0.8463,-0.34026 0.10017,-8.64285 c 0.10947,-9.44565 0.1667,-9.67512 2.28081,-9.14451 0.8144,0.20439 0.99142,0.46277 0.99612,1.45392 0.003,0.66295 0.12905,1.01681 0.2798,0.78635 0.15074,-0.23045 0.92706,-0.86 1.72514,-1.39899 1.86947,-1.26257 5.0011,-1.36501 6.87133,-0.22476 2.26545,1.38121 2.66552,2.97756 2.67484,10.67301 0.008,6.33681 -0.0367,6.77666 -0.7008,6.95034 -0.38995,0.10197 -1.14541,0.10198 -1.6788,2e-5 l -0.96979,-0.1854 -0.001,-6.20535 c -10e-4,-5.51066 -0.0835,-6.33996 -0.73456,-7.4078 -1.26031,-2.06701 -3.47332,-2.08967 -5.78585,-0.0592 l -1.31247,1.15245 v 6.30346 c 0,5.19281 -0.0932,6.30346 -0.52908,6.30346 -0.291,0 -0.75267,0.0734 -1.02593,0.16321 -0.27327,0.0898 -0.87768,0.0101 -1.34314,-0.17707 z m -29.7184,-21.46403 c -0.69377,-0.69378 -0.77241,-2.43595 -0.13857,-3.06979 0.24623,-0.24623 1.08978,-0.44768 1.87456,-0.44768 1.17874,0 1.48855,0.1622 1.78148,0.93266 0.8747,2.30064 -1.82083,4.28145 -3.51747,2.58481 z M 97.353467,33.702174 C 89.556406,29.180599 80.532894,23.966905 77.301217,22.116185 L 71.425442,18.751246 V -4.8233019 -28.397846 l 4.196982,-2.449691 c 2.30834,-1.347332 8.226086,-4.765886 13.150545,-7.59679 4.92446,-2.830903 12.089051,-6.967817 15.921311,-9.193143 3.83225,-2.225325 7.21663,-4.046045 7.52084,-4.046045 0.30421,0 7.57724,4.057441 16.16229,9.016536 8.58506,4.959095 17.0804,9.834896 18.87854,10.835113 l 3.26934,1.818581 5.12462,-2.954057 c 5.06794,-2.921379 10.70537,-6.182559 23.03175,-13.323562 3.48816,-2.020784 7.14333,-4.102775 8.1226,-4.626648 l 1.78049,-0.952496 2.13669,1.166655 c 1.17518,0.641659 7.84459,4.475417 14.82091,8.519462 6.97632,4.044044 15.8254,9.143006 19.66463,11.331029 9.03613,5.149791 9.30914,5.65701 3.04487,5.65701 h -3.92063 l -6.22338,-3.604607 c -3.42286,-1.982535 -8.90945,-5.151672 -12.19242,-7.042529 -3.28298,-1.890857 -8.48724,-4.902355 -11.56502,-6.692216 l -5.59598,-3.254293 -2.23839,1.215083 c -2.05567,1.115897 -5.39799,3.034551 -22.38391,12.849475 -3.28297,1.896991 -7.10222,4.093894 -8.48723,4.882009 l -2.51819,1.432935 V -3.3826699 18.644691 l -1.77206,1.070399 c -0.97463,0.588719 -7.31207,4.263944 -14.08321,8.167171 -6.77113,3.903224 -15.03302,8.666553 -18.35975,10.585171 -3.32673,1.918618 -6.34855,3.481059 -6.71517,3.472091 -0.36661,-0.009 -7.04598,-3.715778 -14.843043,-8.237349 z m 33.016263,-8.04071 17.34753,-10.03168 V -4.8734269 -25.376634 l -5.40945,-3.129267 c -17.22942,-9.966902 -29.87136,-17.208572 -30.04138,-17.208572 -0.10708,0 -5.77267,3.215431 -12.5902,7.145403 -6.817537,3.929972 -14.074314,8.095068 -16.126172,9.255774 -2.051858,1.160703 -4.445571,2.564961 -5.31936,3.120574 l -1.588709,1.010208 0.09645,20.4125828 0.09645,20.4125862 17.53406,10.157067 c 9.643731,5.586389 17.785881,10.09775 18.093651,10.025248 0.30778,-0.0725 8.36599,-4.646082 17.90713,-10.163506 z m -20.61185,4.507966 c -1.11838,-1.842352 -1.28205,-2.84132 -0.5596,-3.415404 0.37967,-0.301694 25.79306,-15.044168 31.50685,-18.2773326 1.25939,-0.7126253 1.71875,-0.8069884 2.33166,-0.4789709 0.41981,0.2246748 0.76702,0.6124386 0.77158,0.8617021 0.005,0.2492635 0.33659,0.8729052 0.73783,1.3858694 1.553,1.985393 1.32609,2.219413 -6.6219,6.829293 -19.08085,11.067003 -25.76036,14.807563 -26.42242,14.796692 -0.44522,-0.0073 -1.10789,-0.653965 -1.744,-1.701849 z M 80.183335,14.645262 c -0.101682,-0.265529 -0.141223,-9.2125077 -0.08787,-19.88217 l 0.09701,-19.399386 h 2.797988 2.797988 V -4.8638429 14.908608 l -2.710116,0.109719 c -1.955626,0.07918 -2.761589,-0.0247 -2.894997,-0.373065 z m 56.528505,-35.307681 c -2.77001,-1.604736 -10.19867,-5.900391 -16.50813,-9.545894 -8.24017,-4.761035 -11.47176,-6.81449 -11.47176,-7.289535 0,-0.869493 1.82693,-4.121592 2.44962,-4.36054 0.26754,-0.102662 1.63052,0.479711 3.02886,1.294163 1.39833,0.814452 3.13,1.814785 3.84815,2.222963 0.71815,0.408178 5.16695,2.967834 9.88623,5.688123 4.71927,2.72029 9.09374,5.238152 9.72104,5.595249 5.33582,3.037478 7.36362,4.326537 7.54353,4.795376 0.34666,0.903381 -1.81913,4.528749 -2.70195,4.522862 -0.41757,-0.0026 -3.02558,-1.318028 -5.79559,-2.922767 z m 73.18965,52.191936 c -2.88192,-0.718385 -4.0374,-3.168334 -3.45012,-7.315266 0.73234,-5.171249 2.7297,-7.253785 6.95713,-7.253785 4.08629,0 5.07871,0.721329 4.41152,3.206469 -0.1945,0.724485 -0.40917,0.768753 -2.94032,0.606313 -2.62285,-0.168323 -2.75581,-0.136624 -3.37217,0.804075 -0.35913,0.548092 -0.72702,2.042669 -0.83552,3.39425 -0.19145,2.385095 -0.18064,2.419969 0.87455,2.821152 0.60302,0.229271 1.82616,0.301985 2.80804,0.166943 0.9568,-0.131595 1.81828,-0.100089 1.9144,0.07001 0.32199,0.569834 -0.16447,3.054366 -0.63326,3.234254 -1.01946,0.391204 -4.57051,0.555673 -5.73425,0.265585 z m 22.12834,-0.142559 c -1.83732,-0.835084 -2.24355,-1.608773 -2.18891,-4.168936 0.0582,-2.728605 0.95383,-4.863657 2.33262,-5.560815 2.34057,-1.18346 5.92607,-0.998736 7.30095,0.376143 0.60031,0.600314 0.80242,3.71158 0.29087,4.477695 -0.52727,0.78966 -2.06321,1.346038 -3.86547,1.400214 -2.69262,0.08094 -2.20355,0.56325 0.70013,0.690447 2.19291,0.09606 2.53206,0.20704 2.62554,0.85915 0.2035,1.419651 -0.69012,1.992269 -3.46494,2.220271 -1.81554,0.149181 -2.9526,0.05953 -3.73079,-0.294169 z m 4.10386,-6.587013 c 0,-0.878658 -1.21123,-0.878766 -1.68145,-1.53e-4 -0.39273,0.733826 -0.34363,0.786656 0.6277,0.675371 0.62949,-0.07212 1.05375,-0.343981 1.05375,-0.675218 z m 30.87583,6.666964 c -0.74968,-0.216549 -1.42179,-0.762746 -1.77206,-1.440087 -1.06547,-2.060394 -0.48711,-6.089213 1.10231,-7.678635 1.86315,-1.863147 6.19057,-2.041248 7.90642,-0.325395 1.20316,1.203154 1.2081,3.589857 0.01,4.788034 -0.90192,0.901918 -3.73124,1.559468 -4.85486,1.128294 -0.35206,-0.135098 -0.62437,-0.05947 -0.62437,0.173386 0,0.257269 0.87913,0.415132 2.33165,0.418691 2.91141,0.0071 3.33138,0.247704 2.94697,1.688093 -0.25459,0.953954 -0.51952,1.13849 -1.94726,1.356331 -2.22437,0.339388 -3.65287,0.308931 -5.09873,-0.108712 z m 4.00576,-6.672075 c 0,-0.83104 -0.73114,-0.984963 -1.41765,-0.298452 -0.69544,0.695438 -0.53334,1.044582 0.48499,1.044582 0.68395,0 0.93266,-0.198967 0.93266,-0.74613 z m 23.50829,6.45631 c -1.74594,-0.90456 -2.31857,-2.106718 -2.10919,-4.427955 0.38376,-4.254703 2.02256,-5.896637 5.90889,-5.920208 3.12669,-0.01895 4.21601,0.890205 4.21601,3.518788 0,2.498816 -0.96002,3.365666 -3.84581,3.472583 -2.77529,0.102821 -2.38516,0.577397 0.58149,0.707354 2.19291,0.09606 2.53206,0.20704 2.62554,0.85915 0.20272,1.414171 -0.69246,1.99156 -3.46494,2.234892 -2.1068,0.184906 -2.86277,0.09899 -3.91199,-0.444604 z m 4.28506,-6.451199 c 0,-0.878658 -1.21123,-0.878766 -1.68145,-1.53e-4 -0.39273,0.733826 -0.34363,0.786656 0.6277,0.675371 0.62949,-0.07212 1.05375,-0.343981 1.05375,-0.675218 z m 27.05241,6.451199 c -1.75757,-0.910585 -2.31898,-2.103569 -2.10462,-4.472264 0.22311,-2.465423 1.18452,-4.492155 2.42953,-5.121673 2.34057,-1.18346 5.92607,-0.998736 7.30095,0.376143 0.89031,0.890316 0.76995,4.044343 -0.18841,4.937192 -0.79663,0.742172 -3.65051,1.32521 -4.63587,0.947093 -0.31261,-0.119959 -0.56838,-0.03994 -0.56838,0.177825 0,0.229204 1.06043,0.442388 2.51819,0.506246 2.19291,0.09606 2.53206,0.20704 2.62554,0.85915 0.20272,1.414171 -0.69246,1.99156 -3.46494,2.234892 -2.1068,0.184906 -2.86277,0.09899 -3.91199,-0.444604 z m 4.28506,-6.451199 c 0,-0.878658 -1.21123,-0.878766 -1.68145,-1.53e-4 -0.39273,0.733826 -0.34363,0.786656 0.6277,0.675371 0.62949,-0.07212 1.05375,-0.343981 1.05375,-0.675218 z m -112.72359,5.497599 c 0.11641,-0.666854 0.66881,-4.02444 1.22757,-7.461302 l 1.01592,-6.248841 h 2.03652 2.03653 l -0.25146,2.454317 c -0.24999,2.440089 -0.2465,2.452538 0.60135,2.1474 1.27633,-0.45934 3.49736,-0.343626 4.17339,0.217427 0.71713,0.595165 0.74825,3.02023 0.0914,7.11894 l -0.44843,2.797988 -2.14204,0.112106 -2.14204,0.112103 0.23967,-1.604363 c 0.13182,-0.882403 0.375,-2.359823 0.5404,-3.28316 0.33677,-1.879994 0.0483,-2.428456 -1.08778,-2.067892 -0.52904,0.167913 -0.84146,0.676721 -0.99631,1.622587 -0.12407,0.757882 -0.39362,2.259335 -0.59901,3.33656 l -0.37342,1.958592 h -2.06693 -2.06693 z m 22.83746,0.559598 c 0.0766,-0.359075 0.40044,-2.331657 0.71969,-4.383515 0.91206,-5.861901 0.67711,-5.409444 2.80897,-5.409444 1.02202,0 1.85822,0.159313 1.85822,0.354027 0,0.194718 0.58219,0.110778 1.29375,-0.186532 1.73101,-0.723265 2.92684,-0.681079 3.93957,0.138978 0.81178,0.65734 0.88273,0.65734 2.17207,0 1.76132,-0.897975 3.0861,-0.857916 4.34375,0.131348 0.97904,0.770115 1.01961,0.924862 0.80684,3.077788 -0.12321,1.246794 -0.41452,3.316146 -0.64735,4.598557 l -0.42333,2.331657 h -2.06006 -2.06006 l 0.25717,-1.958592 c 0.14144,-1.077225 0.35376,-2.672079 0.47183,-3.544118 0.16691,-1.232776 0.0948,-1.585527 -0.32433,-1.585527 -1.1911,0 -1.72282,0.979538 -2.17697,4.01045 l -0.46118,3.077787 h -2.00625 c -2.3156,0 -2.27663,0.102082 -1.57745,-4.131562 0.23584,-1.428071 0.32049,-2.704804 0.18811,-2.837186 -0.13238,-0.132379 -0.63139,-0.06268 -1.10889,0.154885 -0.74286,0.338471 -0.94027,0.858878 -1.36743,3.60472 l -0.49922,3.209143 h -2.14334 c -1.84562,0 -2.12401,-0.09069 -2.00411,-0.652864 z m 18.44416,0.118008 c 0,-0.294169 0.33486,-2.51857 0.74414,-4.943113 0.40928,-2.424543 0.74504,-4.534166 0.74613,-4.688055 0.001,-0.15389 0.92533,-0.279799 2.05385,-0.279799 2.36147,0 2.24798,-0.340012 1.49435,4.476781 -1.04882,6.703514 -0.67925,5.969042 -3.00352,5.969042 -1.5183,0 -2.03495,-0.135796 -2.03495,-0.534856 z m 18.28019,0.227503 c 0,-0.458505 -1.1,-7.927936 -1.34198,-9.112541 l -0.20956,-1.025929 h 2.26803 2.26803 l 0.0262,2.145124 c 0.0441,3.607148 0.40481,3.74735 1.64545,0.639553 1.09981,-2.754992 1.12622,-2.784677 2.47807,-2.784677 1.51873,0 1.63495,0.163421 2.02223,2.843558 0.50578,3.500153 0.73196,3.317828 2.0235,-1.631097 l 0.41378,-1.585526 h 2.03748 c 1.45506,0 2.03748,0.14301 2.03748,0.500306 0,1.015506 -1.06103,3.87834 -2.61447,7.054262 l -1.59668,3.26432 h -2.15953 c -2.30646,0 -2.19238,0.0999 -2.76925,-2.424923 l -0.25571,-1.119196 -0.90531,1.77206 -0.9053,1.772059 h -2.23125 c -1.22718,0 -2.23124,-0.13831 -2.23124,-0.307353 z m 26.53015,-4.076162 c 1.00163,-6.504055 0.78901,-6.062308 2.91801,-6.062308 1.00493,0 1.88765,0.181544 1.96161,0.403432 0.0862,0.258594 0.54357,0.168644 1.27399,-0.250558 0.65796,-0.37762 1.42016,-0.54629 1.80365,-0.399131 0.56325,0.216139 0.62395,0.523403 0.39957,2.022614 -0.33956,2.268765 -0.38392,2.326277 -1.79947,2.333071 -0.65474,0.003 -1.39724,0.137079 -1.65,0.297635 -0.25276,0.160552 -0.66059,1.584956 -0.90629,3.165338 l -0.44672,2.873422 h -2.11471 -2.11472 z m 8.16491,3.717728 c 0,-0.651528 1.66216,-11.203601 2.08413,-13.230889 0.20123,-0.966753 0.33018,-1.025929 2.23576,-1.025929 2.31069,0 2.20634,-0.287424 1.48999,4.103717 -0.28452,1.744079 -0.4531,3.236948 -0.37462,3.317481 0.25393,0.260594 1.31448,-0.809935 1.87369,-1.891317 0.4988,-0.964586 0.71958,-1.053099 2.62677,-1.053099 1.74541,0 2.04556,0.09545 1.85574,0.59011 -0.12455,0.32456 -0.22645,0.731398 -0.22645,0.904086 0,0.172689 -0.58595,1.081624 -1.30212,2.019861 l -1.30213,1.705881 1.11559,2.435753 c 0.61358,1.339662 1.1156,2.515489 1.1156,2.612941 0,0.09746 -0.92545,0.177191 -2.05656,0.177191 h -2.05657 l -0.91948,-2.079114 c -0.50571,-1.143512 -1.06905,-1.986677 -1.25185,-1.873697 -0.1828,0.112975 -0.44422,1.048577 -0.58092,2.079114 l -0.24856,1.873697 h -2.039 c -1.70828,0 -2.03901,-0.107991 -2.03901,-0.665787 z M 260.57455,19.105591 c 0.0134,-2.19907 0.32552,-2.51819 2.46334,-2.51819 1.83553,0 2.00791,0.07223 2.00325,0.839397 -0.0134,2.199069 -0.32551,2.518189 -2.46334,2.518189 -1.83553,0 -2.00791,-0.07223 -2.00325,-0.839396 z m -97.65927,-22.9435048 0.0977,-14.4562732 7.08823,0.0011 c 6.67917,7.46e-4 7.19081,0.05142 8.86557,0.87523 2.81237,1.383396 3.77016,3.359488 3.94727,8.1439215 0.24066,6.5012976 -1.32396,9.59754035 -5.45708,10.7990712 -1.90529,0.5538823 -2.89609,0.5409108 -7.26249,-0.095079 l -1.39899,-0.2037719 v 4.6961064 4.6961058 h -2.9889 -2.98891 l 0.0976,-14.4562727 z m 12.9732,-0.6579749 c 1.72133,-1.832272 1.23471,-7.9626533 -0.63863,-8.0455033 -1.21077,-0.05355 -5.13411,-0.06519 -5.80155,-0.0172 -0.58061,0.04173 -0.65286,0.514853 -0.65286,4.2749983 0,2.3254417 0.11192,4.3399933 0.24871,4.4767813 0.13679,0.1367918 1.5345,0.2487114 3.10602,0.2487114 2.56959,0 2.94603,-0.09443 3.73831,-0.9377738 z m 12.43054,14.7048837 c -1.28106,-0.3708826 -2.98628,-2.1439678 -3.3127,-3.4445325 -0.11208,-0.4465291 -0.15399,-5.4580284 -0.0932,-11.136669 0.10522,-9.8219535 0.14885,-10.3760565 0.89574,-11.3772585 0.43182,-0.578855 1.35515,-1.38822 2.05185,-1.798592 1.15886,-0.682586 1.8176,-0.736333 7.73511,-0.631084 3.5576,0.06328 6.88126,0.272028 7.3859,0.463891 0.85818,0.326276 0.91034,0.499833 0.8064,2.682943 l -0.11113,2.334097 -6.0768,0.186532 c -4.85022,0.148883 -6.14803,0.299486 -6.42966,0.74613 -0.19408,0.307779 -0.35544,1.608844 -0.35858,2.8912551 l -0.006,2.331657 h 3.86511 c 2.12581,0 4.6514,0.1077711 5.61241,0.2394929 l 1.74729,0.2394929 -0.1097,2.2786966 -0.10969,2.2786967 -5.50271,0.32632 -5.50271,0.32632383 V 1.4791072 c 0,1.7116825 0.1638,2.4690308 0.61528,2.8447335 0.43936,0.365615 2.27937,0.5653429 6.43537,0.698542 l 5.8201,0.1865326 v 2.4249232 2.4249235 l -1.86533,0.247114 c -2.75795,0.365373 -12.12844,0.298091 -13.49268,-0.09688 z m 17.49875,-14.0469088 0.0977,-14.4562732 7.08823,0.01112 c 6.48371,0.01018 7.21551,0.07838 8.5805,0.799699 0.82074,0.433714 1.77965,1.106366 2.1309,1.494786 1.69402,1.873283 2.49326,6.2081319 1.784,9.6760109 -0.37817,1.8490861 -0.72651,2.4644831 -2.21117,3.9064245 l -1.76229,1.71157802 0.83963,1.83254058 c 0.46179,1.0078989 1.52422,3.3182053 2.36093,5.1340103 0.83673,1.8158049 1.52131,3.5365677 1.52131,3.8239177 0,0.698892 -5.32718,0.749838 -5.86851,0.05612 -0.20014,-0.2564824 -1.24663,-2.5856174 -2.32553,-5.175857 l -1.96163,-4.70952558 -1.87763,-0.22237665 c -1.0327,-0.1223094 -2.02132,-0.13357597 -2.19693,-0.02503267 -0.17562,0.1085433 -0.31931,2.5377493 -0.31931,5.398241 v 5.2008929 h -2.9889 -2.9889 z m 12.79882,-2.1281686 c 0.50363,-0.5036379 0.93349,-1.3850042 0.95523,-1.9585919 0.15548,-4.1016867 -0.3738,-4.6444737 -4.55935,-4.6756957 l -3.12801,-0.02333 -0.10632,3.7866634 -0.10632,3.7866632 h 3.01453 c 2.70319,0 3.1091,-0.094572 3.93024,-0.915707 z m 9.58509,2.1281686 0.0976,-14.4562732 2.27445,-0.109584 2.27445,-0.109581 5.55992,8.9455908 5.55992,8.94559037 0.18653,-8.83600627 0.18653,-8.8360099 h 2.98452 2.98452 V -3.9311801 10.431827 l -2.42492,0.09585 -2.42492,0.09585 -5.59598,-9.0274295 -5.59598,-9.0274335 -0.0999,9.0248444 -0.0999,9.0248476 h -2.98227 -2.98227 z m 23.20403,13.446151 c 0.26172,-1.0832058 2.63365,-8.92431825 3.19285,-10.55489634 0.17591,-0.51296456 1.01578,-3.19903336 1.86637,-5.96904186 0.85058,-2.7700085 1.9969,-6.463353 2.54736,-8.207433 l 1.00084,-3.171053 h 3.69616 3.69616 l 4.37509,14.1764744 c 2.40629,7.7970609 4.29981,14.3023836 4.20782,14.4562736 -0.092,0.153889 -1.47939,0.279798 -3.08309,0.279798 h -2.91582 l -0.86546,-2.995123 -0.86545,-2.9951271 -4.64867,0.1038725 -4.64866,0.1038688 -0.79226,2.7979883 -0.79227,2.7979885 -3.11134,0.109073 -3.11133,0.109069 z M 266.5385,-1.3550983 c 0,-0.9866117 -2.7791,-10.3878077 -2.99559,-10.1335567 -0.1324,0.155486 -0.79776,2.3811964 -1.47858,4.9460191 -0.68082,2.5648227 -1.31364,4.8731631 -1.40628,5.1296454 -0.12589,0.3485659 0.59535,0.46633136 2.85601,0.46633136 1.94221,0 3.02444,-0.14615196 3.02444,-0.40843916 z m 14.54954,11.2437984 c -2.34447,-0.8058804 -4.25837,-2.7147912 -4.84722,-4.8345733 -0.20819,-0.7494356 -0.37245,-6.2240356 -0.37361,-12.4518503 l -0.002,-11.1143825 2.89126,0.108962 2.89125,0.108957 0.18654,10.7614885 0.18653,10.7614886 1.11919,0.8949422 c 1.49525,1.1956438 5.33986,1.2794865 7.18151,0.156609 0.66685,-0.4065888 1.24541,-0.7836904 1.28569,-0.8380013 0.0403,-0.054315 0.16618,-4.9672501 0.2798,-10.9176387 l 0.20657,-10.8188883 2.89125,-0.108957 2.89126,-0.108962 -0.008,11.4874476 c -0.007,10.3377761 -0.0767,11.6383334 -0.69304,12.9951376 -1.4849,3.2689906 -4.61533,4.6556588 -10.46517,4.6356998 -2.50183,-0.0085 -4.18347,-0.223164 -5.62153,-0.7174789 z M 303.45773,9.778963 c -2.86605,-1.4452618 -2.96906,-1.9083773 -2.96973,-13.3512955 -3.7e-4,-9.5322055 0.0306,-9.9615515 0.83882,-11.5434035 1.42318,-2.785599 2.70233,-3.196463 9.60643,-3.085588 3.18038,0.05108 6.41936,0.192976 7.19774,0.315334 l 1.41522,0.22247 -0.1095,2.482655 -0.1095,2.482655 -5.87337,0.102727 c -5.72396,0.100116 -5.8882,0.12535 -6.45605,0.991999 -0.39225,0.598642 -0.54543,1.540449 -0.46873,2.8817934 l 0.11394,1.9925222 5.22291,0.2342811 c 2.8726,0.128853 5.34882,0.2547625 5.50271,0.2797989 0.15389,0.025033 0.2798,1.1152371 0.2798,2.4226736 v 2.3771523 l -5.59598,0.2698492 -5.59598,0.26984918 V 1.3272809 c 0,3.5568737 0.27214,3.6951018 7.27477,3.6951018 h 5.78251 v 2.558309 2.5583123 l -2.29311,0.239676 c -1.26122,0.131823 -4.49929,0.239679 -7.19572,0.239679 -4.34227,0 -5.09286,-0.09594 -6.56718,-0.839396 z m 18.09759,0.387533 c -0.10203,-0.2658952 -0.14146,-6.7783288 -0.0876,-14.4720656 l 0.0979,-13.9886174 5.73755,-0.103242 c 3.15566,-0.05678 6.67101,0.06931 7.8119,0.28022 4.17838,0.772413 6.04244,3.184469 6.32962,8.1903913 0.22703,3.9573367 -0.355,5.8242851 -2.41715,7.7534272 l -1.67959,1.57125326 2.46139,5.37219364 c 1.35377,2.9547056 2.4614,5.4861086 2.4614,5.6253366 0,0.139228 -1.38076,0.204384 -3.06834,0.144787 l -3.06834,-0.108353 -2.13887,-5.0363792 c -2.13569,-5.02885431 -2.141,-5.03676329 -3.55359,-5.29467813 -2.88853,-0.52739469 -2.68857,-0.88508206 -2.80345,5.01487933 l -0.10351,5.316178 -2.8969,0.109062 c -2.10951,0.07942 -2.94733,-0.02235 -3.08242,-0.374393 z m 12.69909,-15.8343613 c 0.97644,-0.9764346 1.37485,-2.4263447 1.12555,-4.0961244 -0.32188,-2.1558763 -1.04641,-2.6642373 -3.92813,-2.7561603 -4.08392,-0.130267 -3.73065,-0.484336 -3.73065,3.7391234 v 3.7306512 h 2.95787 c 2.25505,0 3.10459,-0.1467228 3.57536,-0.6174899 z"
       id="path21"
       inkscape:connector-curvature="0" />
  </g>
</svg>
