<?xml version="1.0" encoding="utf-8"?>
<!-- Generator: Adobe Illustrator 25.4.1, SVG Export Plug-In . SVG Version: 6.00 Build 0)  -->
<svg version="1.1" id="Ebene_1" xmlns="http://www.w3.org/2000/svg" xmlns:xlink="http://www.w3.org/1999/xlink" x="0px" y="0px"
	 viewBox="0 0 820.7 283.8" style="enable-background:new 0 0 820.7 283.8;" xml:space="preserve">
<style type="text/css">
	.st0{fill:#B1B321;}
</style>
<g id="Ebene_2_00000073720384519665312270000010752320769905436056_">
	<g id="Ebene_1-2">
		<g id="Ebene_2-2">
			<g id="Ebene_1-2-2">
				<path class="st0" d="M214.7,102.6c-0.5,0-1-0.1-1.5-0.4L114.3,45c-1.4-0.8-1.9-2.7-1.1-4.1l5.4-9.3c0.4-0.7,1.1-1.2,1.8-1.4
					c0.3-0.1,0.5-0.1,0.8-0.1c0.5,0,1,0.1,1.5,0.4l98.9,57.1c0.7,0.4,1.2,1.1,1.4,1.9c0.2,0.8,0.1,1.6-0.3,2.3l-5.4,9.3
					C216.8,102,215.8,102.6,214.7,102.6z"/>
				<path class="st0" d="M29.1,202.1c-1.7,0-3-1.3-3-3V84.9c0-1.7,1.3-3,3-3h10.7c1.7,0,3,1.3,3,3v114.2c0,1.7-1.3,3-3,3L29.1,202.1
					z"/>
				<path class="st0" d="M121.1,253.2c-1.1,0-2.1-0.6-2.6-1.5l-5.4-9.3c-0.4-0.7-0.5-1.5-0.3-2.3c0.2-0.8,0.7-1.4,1.4-1.8l98.9-57.1
					c1.4-0.8,3.3-0.3,4.1,1.1l5.4,9.3c0.8,1.4,0.3,3.3-1.1,4.1l-98.9,57.1C122.2,253.1,121.7,253.2,121.1,253.2z"/>
				<path class="st0" d="M123.2,283.8c-0.4,0-0.8-0.1-1.1-0.3L1.1,213.7c-0.7-0.4-1.1-1.2-1.1-2V72.1c0-0.8,0.4-1.6,1.1-2L122.1,0.3
					c0.7-0.4,1.6-0.4,2.3,0l114.4,66c0.1,0.1,0.2,0.1,0.4,0.1c0.1,0,0.3,0,0.4-0.1l114.4-66c0.7-0.4,1.5-0.4,2.2,0l130.2,75.3
					c1.1,0.6,1.5,2,0.8,3.1c-0.4,0.7-1.2,1.1-2,1.1h-20.2c-0.4,0-0.8-0.1-1.1-0.3L355.3,16.8c-0.1-0.1-0.2-0.1-0.4-0.1
					c-0.1,0-0.3,0-0.4,0.1L246.8,79c-0.2,0.1-0.4,0.4-0.4,0.6v132.1c0,0.8-0.4,1.6-1.1,2l-120.9,69.8
					C124,283.7,123.6,283.8,123.2,283.8z M123.2,16.7c-0.1,0-0.2,0-0.4,0.1L15,79c-0.2,0.1-0.4,0.4-0.4,0.6v124.5
					c0,0.3,0.1,0.5,0.4,0.6L122.8,267c0.1,0.1,0.2,0.1,0.4,0.1c0.1,0,0.3,0,0.4-0.1l107.8-62.2c0.2-0.1,0.4-0.4,0.4-0.6V79.6
					c0-0.3-0.1-0.5-0.4-0.6L123.5,16.8C123.4,16.7,123.3,16.7,123.2,16.7L123.2,16.7z"/>
				<path class="st0" d="M277.4,101.8h35.8c7.1,0,13,2,17.5,6.1c4.6,4,6.9,11.9,6.9,23.6c0,20.2-7.9,30.3-23.7,30.3
					c-3.2-0.1-6.4-0.3-9.5-0.6c-3.9-0.4-7.2-0.8-10-1.2V188h-17L277.4,101.8z M311.2,146.2c2.8,0.1,5.4-1.2,6.9-3.5
					c1.6-2.3,2.4-6.1,2.4-11.2c0-9.5-3-14.2-8.9-14.2h-17.2v28.9H311.2z"/>
				<path class="st0" d="M350.1,184.9c-4.1-2.5-6.2-7.6-6.2-15.3v-48.2c0-7,1.9-12,5.7-15.1c3.9-3.1,8.7-4.7,13.7-4.6
					c11.7,0,23.9,0.5,36.7,1.5v14.4h-31.7c-5,0-7.5,2.4-7.5,7.1v12.5l33.6,0.9v13.6l-33.6,0.9v11.9c0,5.1,2.4,7.7,7.1,7.7h32v14.5
					c-11.8,1.2-23.6,1.8-35.4,1.8C359.5,188.7,354.5,187.4,350.1,184.9z"/>
				<path class="st0" d="M407.6,101.8h35.1c7.5,0,13.4,2,17.7,6.1s6.5,11.2,6.5,21.5c0,7.2-1.2,12.6-3.6,16.1
					c-2.4,3.5-5.8,6.3-9.8,7.9l15.8,34.6H452l-13.6-32c-3.7,0-8.3-0.1-13.8-0.2V188h-17L407.6,101.8z M439.8,142.2
					c3.3,0,5.8-1,7.6-2.9s2.6-5.2,2.6-10c0-4.6-0.9-7.7-2.6-9.5c-1.8-1.8-4.3-2.6-7.6-2.6h-15.1v25L439.8,142.2z"/>
				<path class="st0" d="M475.4,101.8h13.6l35.5,56.9v-56.9h17V188h-13.7l-35.4-56.9V188h-17.1V101.8z"/>
				<path class="st0" d="M572.1,101.8h21.4l26.6,86.2h-17.7l-5.4-18h-28.9l-5.3,18h-17.4L572.1,101.8z M593.1,154.4l-10.4-37.9
					l-10.5,37.9H593.1z"/>
				<path class="st0" d="M628.7,182.5c-5.7-4.1-8.6-11.5-8.6-22.2v-58.5h17v58.4c0,4.6,1.4,7.9,4.1,9.9c2.7,2,6.7,3,12.1,3
					c5.3,0,9.3-1,12-3c2.7-2,4-5.3,4-9.9v-58.4h17.1v58.5c0,10.7-2.9,18.1-8.7,22.2s-13.9,6.1-24.5,6.1
					C642.6,188.6,634.5,186.6,628.7,182.5z"/>
				<path class="st0" d="M701.5,184.9c-4.1-2.5-6.2-7.6-6.2-15.3v-48.2c0-7,1.9-12,5.7-15.1c3.9-3.1,8.7-4.7,13.7-4.6
					c11.7,0,23.9,0.5,36.7,1.5v14.4h-31.7c-5,0-7.5,2.4-7.5,7.1v12.5l33.6,0.9v13.6l-33.6,0.9v11.9c0,5.1,2.4,7.7,7.1,7.7h32v14.5
					c-11.8,1.2-23.6,1.8-35.4,1.8C710.8,188.7,705.8,187.4,701.5,184.9z"/>
				<path class="st0" d="M759,101.8h35.1c7.5,0,13.4,2,17.7,6.1s6.5,11.2,6.5,21.5c0,7.2-1.2,12.6-3.6,16.1
					c-2.4,3.5-5.8,6.3-9.8,7.9l15.8,34.6h-17.3l-13.6-32c-3.7,0-8.3-0.1-13.8-0.2V188h-17V101.8z M791.1,142.2c3.3,0,5.8-1,7.6-2.9
					c1.8-1.9,2.6-5.2,2.6-10c0-4.6-0.9-7.7-2.6-9.5c-1.8-1.8-4.3-2.6-7.6-2.6H776v25L791.1,142.2z"/>
			</g>
		</g>
	</g>
</g>
</svg>
