<svg xmlns="http://www.w3.org/2000/svg" viewBox="0 0 820.71 283.78"><defs><style>.cls-1{fill:#b1b321;}.cls-2{fill:#b1b1b0;}</style></defs><g id="Ebene_2" data-name="Ebene 2"><g id="Ebene_1-2" data-name="Ebene 1"><path class="cls-1" d="M214.73,102.57a3,3,0,0,1-1.49-.4L114.32,45.05a3,3,0,0,1-1.1-4.09l5.37-9.3a3,3,0,0,1,1.82-1.39,2.87,2.87,0,0,1,.77-.11,3.06,3.06,0,0,1,1.5.4l98.93,57.13a3,3,0,0,1,1.4,1.82,3.05,3.05,0,0,1-.3,2.27l-5.38,9.3A3,3,0,0,1,214.73,102.57Z"/><path class="cls-1" d="M29.07,202.12a3,3,0,0,1-3-3V84.91a3,3,0,0,1,3-3H39.81a3,3,0,0,1,3,3V199.13a3,3,0,0,1-3,3Z"/><path class="cls-1" d="M121.13,253.26a3,3,0,0,1-2.6-1.5l-5.37-9.3a3,3,0,0,1-.3-2.27,3,3,0,0,1,1.39-1.82l98.93-57.11a3,3,0,0,1,2.28-.3,3,3,0,0,1,1.81,1.4l5.38,9.31a3,3,0,0,1-1.1,4.09l-98.93,57.1A3,3,0,0,1,121.13,253.26Z"/><path class="cls-1" d="M123.2,283.78a2.23,2.23,0,0,1-1.13-.31L1.13,213.67a2.28,2.28,0,0,1-1.13-2V72.08a2.26,2.26,0,0,1,1.13-2L122.05.31a2.28,2.28,0,0,1,2.26,0l114.37,66a.78.78,0,0,0,.36.1.82.82,0,0,0,.37-.1L353.78.3A2.28,2.28,0,0,1,356,.3l130.2,75.28a2.26,2.26,0,0,1-1.13,4.22l-20.24,0a2.25,2.25,0,0,1-1.13-.3L355.27,16.79a.68.68,0,0,0-.36-.1.71.71,0,0,0-.37.1L246.75,79a.73.73,0,0,0-.36.63V211.71a2.29,2.29,0,0,1-1.14,2l-120.91,69.8A2.23,2.23,0,0,1,123.2,283.78Zm0-267.09a.74.74,0,0,0-.36.09L15,79a.72.72,0,0,0-.37.63V204.14a.74.74,0,0,0,.37.63L122.83,267a.82.82,0,0,0,.37.1.78.78,0,0,0,.36-.1l107.8-62.22a.73.73,0,0,0,.36-.63V79.65a.71.71,0,0,0-.36-.63L123.54,16.78A.77.77,0,0,0,123.18,16.69Z"/><path class="cls-2" d="M412.93,248.5q-4-4.06-4-11.37a51.71,51.71,0,0,1,.73-8.24q1.69-10.53,6.25-15.49t13.27-5a40.59,40.59,0,0,1,8.79.84,31,31,0,0,1,6.25,2l-1.52,9a42.37,42.37,0,0,0-5.64-1.22,37.24,37.24,0,0,0-5.7-.47,12.66,12.66,0,0,0-4.78.73,6.52,6.52,0,0,0-3.07,3.36,30.74,30.74,0,0,0-2.21,8.12,50.14,50.14,0,0,0-.73,6.43,4.57,4.57,0,0,0,1.64,3.95q1.63,1.2,5.76,1.2,3.39,0,5.67-.15c1.51-.1,3.36-.26,5.55-.5l-1.46,8.95q-4.9,1.88-12.91,1.87T412.93,248.5Z"/><path class="cls-2" d="M449.64,207.61H461.4l-2.66,16.13a14.6,14.6,0,0,1,4.42-2.42,17.21,17.21,0,0,1,5.94-1q3.94,0,6,1.87c1.36,1.25,2,3.27,2,6.08a26.29,26.29,0,0,1-.37,4l-3.27,19.88H461.71l3-18.59a4.72,4.72,0,0,0,.06-.88q0-2.22-2.49-2.22a6.82,6.82,0,0,0-5,2.16l-3.21,19.53H442.31Z"/><path class="cls-2" d="M483.08,249.46q-2.94-3.09-2.94-9.12a33.7,33.7,0,0,1,.54-5.61q1.27-7.71,5.64-11t11.76-3.33a18.18,18.18,0,0,1,9.28,2.16q3.69,2.18,3.69,7.72,0,6.32-3.48,8.59t-9.91,2.28a28.07,28.07,0,0,1-5.88-.47,6.37,6.37,0,0,0-.13,1.17,2,2,0,0,0,1.46,1.9,12.46,12.46,0,0,0,4.55.62h10.85l-1.09,6.6a62.06,62.06,0,0,1-14.55,1.64Q486,252.56,483.08,249.46Zm16-15.34a3.2,3.2,0,0,0,1.06-2.66,2.35,2.35,0,0,0-.73-1.84,3,3,0,0,0-2.12-.68,3.76,3.76,0,0,0-3.09,1.44,9.86,9.86,0,0,0-1.7,4.35,16.87,16.87,0,0,0,2.37.23C497,235,498.37,234.68,499.08,234.12Z"/><path class="cls-2" d="M517.06,220.7h9.82l1.45,3a17.61,17.61,0,0,1,4.61-2.51,17.05,17.05,0,0,1,5.82-.88,9.22,9.22,0,0,1,4.55,1.05,8.15,8.15,0,0,1,3.15,3.51,16,16,0,0,1,10.91-4.56c3.11,0,5.34.66,6.67,2a7.39,7.39,0,0,1,2,5.49,32.89,32.89,0,0,1-.48,5.56l-3.1,18.82H550.7l3-18.53a4.36,4.36,0,0,0,.06-.82c0-1.56-.93-2.34-2.78-2.34a6.76,6.76,0,0,0-4.73,2.16l-.19,1.12-3,18.41H531.3l3-18.53a5.44,5.44,0,0,0,.06-.88,2.06,2.06,0,0,0-.69-1.75,3.36,3.36,0,0,0-2-.53,5.65,5.65,0,0,0-2.64.59,9.15,9.15,0,0,0-2.15,1.57l-3.22,19.53H511.9Z"/><path class="cls-2" d="M572.89,220.7h11.76l-5.15,31.51H567.74Zm1-4.35a1.08,1.08,0,0,1-.21-1l1-6.49a1.61,1.61,0,0,1,1.7-1.46h9.21a1,1,0,0,1,.94.41,1.4,1.4,0,0,1,.15,1l-1,6.49a1.5,1.5,0,0,1-1.57,1.35h-9.22A1.27,1.27,0,0,1,573.89,216.35Z"/><path class="cls-2" d="M589.11,249.46q-2.94-3.09-2.94-9.12a33.7,33.7,0,0,1,.54-5.61q1.27-7.71,5.64-11t11.76-3.33a18.18,18.18,0,0,1,9.28,2.16c2.46,1.45,3.7,4,3.7,7.72q0,6.32-3.49,8.59t-9.91,2.28a28.07,28.07,0,0,1-5.88-.47,7.22,7.22,0,0,0-.12,1.17,2,2,0,0,0,1.45,1.9,12.46,12.46,0,0,0,4.55.62h10.85l-1.09,6.6a62.06,62.06,0,0,1-14.55,1.64Q592,252.56,589.11,249.46Zm16-15.34a3.2,3.2,0,0,0,1.06-2.66,2.38,2.38,0,0,0-.72-1.84,3,3,0,0,0-2.13-.68,3.76,3.76,0,0,0-3.09,1.44,9.86,9.86,0,0,0-1.7,4.35,16.87,16.87,0,0,0,2.37.23C603,235,604.4,234.68,605.11,234.12Z"/><path class="cls-2" d="M619.21,220.7h12.12l1.46,21,8.55-21h7.45l3.82,21,3.7-12.62a48.41,48.41,0,0,0,2.12-8.89h11.64a22.24,22.24,0,0,1-1.09,6.49,49.84,49.84,0,0,1-2.43,6.43l-9.09,19.06H645l-2.72-13-6,13H623.87Z"/><path class="cls-2" d="M673.19,249.46q-2.94-3.09-2.94-9.12a32.77,32.77,0,0,1,.55-5.61q1.28-7.71,5.64-11t11.76-3.33a18.12,18.12,0,0,1,9.27,2.16q3.71,2.18,3.7,7.72,0,6.32-3.49,8.59t-9.91,2.28a28.2,28.2,0,0,1-5.88-.47,7.22,7.22,0,0,0-.12,1.17,2,2,0,0,0,1.46,1.9,12.39,12.39,0,0,0,4.54.62h10.86l-1.1,6.6A61.93,61.93,0,0,1,683,252.56Q676.14,252.56,673.19,249.46Zm16-15.34a3.23,3.23,0,0,0,1.06-2.66,2.35,2.35,0,0,0-.73-1.84,3,3,0,0,0-2.12-.68,3.75,3.75,0,0,0-3.09,1.44,9.74,9.74,0,0,0-1.7,4.35A16.89,16.89,0,0,0,685,235C687.08,235,688.49,234.68,689.2,234.12Z"/><path class="cls-2" d="M707.23,220.7h10.55l.55,4.21a16.45,16.45,0,0,1,3.82-3.33,8.27,8.27,0,0,1,4.42-1.23,11.78,11.78,0,0,1,2.79.29L727.6,232h-3.51a14.31,14.31,0,0,0-4.25.59,9,9,0,0,0-3,1.52l-3,18.12H702.08Z"/><path class="cls-2" d="M735.73,207.61h11.76l-3.82,23.2q6.92-1.8,8.91-10.11h11.76q-3,10.63-9.88,14.67l7.94,16.84h-12l-5.7-13.33a11,11,0,0,1-2.43.35l-2.12,13H728.39Z"/><path class="cls-2" d="M768.37,249.46q-2.94-3.09-2.94-9.12a32.77,32.77,0,0,1,.55-5.61q1.28-7.71,5.64-11t11.76-3.33a18.12,18.12,0,0,1,9.27,2.16q3.71,2.18,3.7,7.72,0,6.32-3.49,8.59T783,241.1a28.2,28.2,0,0,1-5.88-.47,7.22,7.22,0,0,0-.12,1.17,2,2,0,0,0,1.46,1.9,12.39,12.39,0,0,0,4.54.62h10.86l-1.1,6.6a61.93,61.93,0,0,1-14.55,1.64Q771.32,252.56,768.37,249.46Zm16-15.34a3.23,3.23,0,0,0,1.06-2.66,2.35,2.35,0,0,0-.73-1.84,3,3,0,0,0-2.12-.68,3.75,3.75,0,0,0-3.09,1.44,9.74,9.74,0,0,0-1.7,4.35,16.89,16.89,0,0,0,2.36.23C782.26,235,783.67,234.68,784.38,234.12Z"/><path class="cls-1" d="M277.36,101.76h35.78q10.67,0,17.55,6.06t6.88,23.55q0,30.32-23.74,30.32a90.91,90.91,0,0,1-9.52-.65q-5.85-.63-10-1.22V188h-17Zm33.83,44.42a7.83,7.83,0,0,0,6.94-3.5q2.36-3.5,2.35-11.19,0-14.22-8.94-14.22h-17.2v28.91Z"/><path class="cls-1" d="M350.07,184.89q-6.19-3.73-6.19-15.28V121.46q0-10.48,5.67-15.09a21.09,21.09,0,0,1,13.71-4.61q17.55,0,36.7,1.52v14.45H368.3c-5,0-7.45,2.38-7.45,7.11v12.48l33.6.93v13.64l-33.6.94v11.89q0,7.69,7.11,7.69h32v14.46a314.14,314.14,0,0,1-35.44,1.75A27.45,27.45,0,0,1,350.07,184.89Z"/><path class="cls-1" d="M407.64,101.76h35.09q11.24,0,17.72,6.12t6.48,21.51q0,10.85-3.62,16.09a22.36,22.36,0,0,1-9.8,7.93L469.34,188H452l-13.65-31.95q-5.5,0-13.76-.23V188h-17Zm32.11,40.46c3.28,0,5.81-.95,7.57-2.86s2.63-5.23,2.63-10q0-6.87-2.63-9.5c-1.76-1.75-4.29-2.62-7.57-2.62H424.61v25Z"/><path class="cls-1" d="M475.41,101.76h13.65l35.55,56.9v-56.9h17V188H527.94l-35.44-56.9V188H475.41Z"/><path class="cls-1" d="M572.09,101.76h21.44L620.14,188H602.48L597.09,170h-28.9L562.91,188H545.48Zm21,52.7-10.43-37.89L572.2,154.46Z"/><path class="cls-1" d="M628.74,182.5q-8.6-6.12-8.6-22.21V101.76h17v58.41q0,6.89,4.07,9.91t12.1,3q8,0,12-3t4-9.91V101.76h17.08v58.53q0,16.08-8.65,22.21t-24.49,6.12Q637.34,188.62,628.74,182.5Z"/><path class="cls-1" d="M701.45,184.89q-6.19-3.73-6.2-15.28V121.46q0-10.48,5.68-15.09a21,21,0,0,1,13.7-4.61q17.55,0,36.7,1.52v14.45H719.68c-5,0-7.45,2.38-7.45,7.11v12.48l33.6.93v13.64l-33.6.94v11.89c0,5.13,2.36,7.69,7.11,7.69h32v14.46a314.08,314.08,0,0,1-35.43,1.75A27.4,27.4,0,0,1,701.45,184.89Z"/><path class="cls-1" d="M759,101.76h35.1q11.24,0,17.71,6.12t6.48,21.51q0,10.85-3.61,16.09a22.47,22.47,0,0,1-9.8,7.93L820.71,188H803.39l-13.64-31.95q-5.5,0-13.76-.23V188H759Zm32.11,40.46q4.93,0,7.57-2.86t2.64-10q0-6.87-2.64-9.5t-7.57-2.62H776v25Z"/></g></g></svg>